<svg width="24" height="24" viewBox="0 0 24 24" fill="none" xmlns="http://www.w3.org/2000/svg">
<path d="M10.9922 0.267212C11.6438 0.0328369 12.3563 0.0328369 13.0125 0.267212L22.0125 3.48284C23.2031 3.9094 24 5.03909 24 6.3094V17.6906C24 18.9563 23.2031 20.0906 22.0078 20.5172L13.0078 23.7328C12.3562 23.9672 11.6437 23.9672 10.9875 23.7328L1.9875 20.5172C0.796875 20.0906 0 18.961 0 17.6906V6.3094C0 5.04377 0.796875 3.9094 1.99219 3.48284L10.9922 0.267212ZM12 3.09377L3.85781 6.00002L12 8.90627L20.1422 6.00002L12 3.09377ZM13.5 20.3719L21 17.6953V8.88284L13.5 11.5594V20.3719Z" fill="#2D2D2D"/>
</svg>
