<svg width="16" height="16" viewBox="0 0 16 16" fill="none" xmlns="http://www.w3.org/2000/svg">
<g clip-path="url(#clip0_76_139)">
<path d="M7.32812 0.178101C7.7625 0.0218506 8.2375 0.0218506 8.675 0.178101L14.675 2.32185C15.4688 2.60623 16 3.35935 16 4.20623V11.7937C16 12.6375 15.4688 13.3937 14.6719 13.6781L8.67188 15.8218C8.2375 15.9781 7.7625 15.9781 7.325 15.8218L1.325 13.6781C0.53125 13.3937 0 12.6406 0 11.7937V4.20623C0 3.36248 0.53125 2.60623 1.32812 2.32185L7.32812 0.178101ZM8 2.06248L2.57188 3.99998L8 5.93748L13.4281 3.99998L8 2.06248ZM9 13.5812L14 11.7969V5.92185L9 7.70623V13.5812Z" fill="#A63C00"/>
</g>
<defs>
<clipPath id="clip0_76_139">
<rect width="16" height="16" fill="white"/>
</clipPath>
</defs>
</svg>
