<svg width="209" height="80" viewBox="0 0 209 80" fill="none" xmlns="http://www.w3.org/2000/svg">
<rect x="82.5454" y="19.9773" width="115.636" height="24" fill="#411D09"/>
<mask id="path-2-outside-1_81_151" maskUnits="userSpaceOnUse" x="0" y="4.02271" width="210" height="52" fill="black">
<rect fill="white" y="4.02271" width="210" height="52"/>
<path d="M11.5178 49.5166C9.76182 49.3702 8.38996 48.8032 7.40222 47.8155C6.41448 46.8277 5.92061 45.5839 5.92061 44.084C5.92061 42.9133 6.21327 41.6878 6.7986 40.4074L19.2002 12.8055C19.6027 11.8909 20.1148 11.2142 20.7367 10.7752C21.3952 10.3362 22.2 10.1167 23.1512 10.1167C24.1024 10.1167 24.8889 10.3362 25.5108 10.7752C26.1693 11.2142 26.6998 11.8909 27.1022 12.8055L39.5038 40.4074C40.0891 41.6878 40.3818 42.8951 40.3818 44.0291C40.3818 45.5656 39.8879 46.8277 38.9002 47.8155C37.9125 48.8032 36.5223 49.3702 34.7297 49.5166L30.1203 39.4745H16.1273L11.5178 49.5166ZM27.6509 32.5603L21.9988 18.5125L21.2306 18.8417L22.7122 22.5183L18.5417 32.5603H27.6509ZM45.3338 14.2871C45.3338 13.2262 45.7179 12.3482 46.4862 11.6532C47.291 10.9581 48.2604 10.6105 49.3945 10.6105H63.8265C67.9238 10.6105 71.0699 11.6714 73.2649 13.7933C75.4965 15.8785 76.6123 18.86 76.6123 22.7378C76.6123 24.8962 76.1733 26.7071 75.2953 28.1704C74.4539 29.6337 73.1369 30.7861 71.3443 31.6275V31.847C74.527 33.2737 76.1184 35.9626 76.1184 39.9135V43.6999C76.1184 45.6022 75.4233 47.0472 74.0332 48.035C72.6796 49.0227 70.6858 49.5166 68.0518 49.5166V40.1879C68.0518 38.3588 67.686 37.0235 66.9544 36.1821C66.2593 35.3041 65.1801 34.8651 63.7168 34.8651H53.2906V43.6999C53.2906 45.6022 52.6138 47.0472 51.2602 48.035C49.9067 49.0227 47.9312 49.5166 45.3338 49.5166V14.2871ZM63.3875 28.0058C65.0703 28.0058 66.3507 27.5485 67.2287 26.6339C68.1067 25.7193 68.5457 24.4023 68.5457 22.6829C68.5457 20.8904 68.125 19.5734 67.2836 18.732C66.4788 17.8906 65.1801 17.4699 63.3875 17.4699H53.2906V28.0058H63.3875ZM98.0639 49.5166C94.7715 49.5166 91.8265 48.8764 89.2291 47.596C86.6317 46.3156 84.6014 44.5413 83.1381 42.2731C81.7113 39.9684 80.9979 37.3527 80.9979 34.4261V25.0974C80.9979 22.1708 81.693 19.5734 83.0832 17.3052C84.5099 15.0371 86.4854 13.2811 89.0096 12.0373C91.5704 10.7569 94.4788 10.1167 97.7347 10.1167C100.991 10.1167 103.899 10.6105 106.46 11.5983C109.021 12.5494 110.996 13.903 112.386 15.659C113.813 17.415 114.526 19.4088 114.526 21.6403C114.526 23.1036 114.051 24.256 113.1 25.0974C112.148 25.9022 110.85 26.3047 109.203 26.3047C108.252 26.3047 107.319 26.1766 106.405 25.9205C106.515 25.1523 106.569 24.2194 106.569 23.1219C106.569 21.3659 105.746 19.9392 104.1 18.8417C102.454 17.7076 100.332 17.1406 97.7347 17.1406C95.1739 17.1406 93.0886 17.8906 91.479 19.3905C89.8693 20.8538 89.0645 22.7561 89.0645 25.0974V34.4261C89.0645 36.804 89.8876 38.7429 91.5339 40.2428C93.2167 41.7427 95.3934 42.4926 98.0639 42.4926C100.661 42.4926 102.765 41.9439 104.374 40.8464C106.021 39.7489 106.844 38.3222 106.844 36.5662C106.844 35.3589 106.789 34.481 106.679 33.9322C107.667 33.7127 108.563 33.603 109.368 33.603C111.014 33.603 112.331 34.0237 113.319 34.8651C114.307 35.7065 114.801 36.8589 114.801 38.3222C114.801 40.4806 114.087 42.4195 112.661 44.1389C111.27 45.8217 109.295 47.1387 106.734 48.0898C104.21 49.041 101.32 49.5166 98.0639 49.5166ZM120.812 15.9882C120.812 14.1591 121.507 12.7324 122.897 11.708C124.324 10.6471 126.318 10.1167 128.879 10.1167V43.645C128.879 45.5107 128.165 46.9558 126.738 47.9801C125.348 49.0044 123.373 49.5166 120.812 49.5166V15.9882ZM140.066 49.0227C138.969 49.0227 138.017 48.6752 137.213 47.9801C136.408 47.2484 136.005 46.3704 136.005 45.3461V14.2871C136.005 13.2628 136.389 12.4031 137.158 11.708C137.963 10.9764 138.932 10.6105 140.066 10.6105H154.608C158.266 10.6105 161.174 11.5983 163.333 13.5738C165.528 15.5492 166.625 18.2015 166.625 21.5306C166.625 23.0305 166.205 24.4755 165.363 25.8657C164.558 27.2192 163.479 28.2984 162.126 29.1033V29.3228C163.991 29.9812 165.473 31.0604 166.57 32.5603C167.668 34.0603 168.217 35.7248 168.217 37.5539C168.217 39.7855 167.686 41.7793 166.625 43.5353C165.564 45.2547 164.083 46.6082 162.181 47.596C160.278 48.5471 158.101 49.0227 155.65 49.0227H140.066ZM154.498 26.4693C155.632 26.4693 156.583 26.0303 157.352 25.1523C158.156 24.2377 158.559 23.1402 158.559 21.8598C158.559 20.4697 158.193 19.3905 157.461 18.6222C156.73 17.8174 155.742 17.415 154.498 17.415H143.852V26.4693H154.498ZM155.596 42.2183C156.986 42.2183 158.083 41.8159 158.888 41.011C159.729 40.1696 160.15 39.0538 160.15 37.6637C160.15 36.2369 159.748 35.1395 158.943 34.3712C158.138 33.5664 157.022 33.164 155.596 33.164H143.852V42.2183H155.596ZM187.169 49.5166C184.169 49.5166 181.407 48.9312 178.883 47.7606C176.358 46.5534 174.346 44.9437 172.846 42.9316C171.383 40.883 170.651 38.688 170.651 36.3467V23.2866C170.651 20.9452 171.383 18.7686 172.846 16.7565C174.346 14.7078 176.358 13.0982 178.883 11.9275C181.407 10.7203 184.169 10.1167 187.169 10.1167C190.168 10.1167 192.93 10.7203 195.455 11.9275C197.979 13.0982 199.973 14.7078 201.436 16.7565C202.936 18.7686 203.686 20.9452 203.686 23.2866V36.3467C203.686 38.688 202.936 40.883 201.436 42.9316C199.973 44.9437 197.979 46.5534 195.455 47.7606C192.93 48.9312 190.168 49.5166 187.169 49.5166ZM187.169 42.4926C189.656 42.4926 191.687 41.9073 193.26 40.7367C194.833 39.566 195.619 38.0478 195.619 36.1821V23.4512C195.619 21.5854 194.833 20.0673 193.26 18.8966C191.687 17.7259 189.656 17.1406 187.169 17.1406C184.681 17.1406 182.651 17.7259 181.077 18.8966C179.504 20.0673 178.718 21.5854 178.718 23.4512V36.1821C178.718 38.0478 179.504 39.566 181.077 40.7367C182.651 41.9073 184.681 42.4926 187.169 42.4926Z"/>
</mask>
<path d="M11.5178 49.5166C9.76182 49.3702 8.38996 48.8032 7.40222 47.8155C6.41448 46.8277 5.92061 45.5839 5.92061 44.084C5.92061 42.9133 6.21327 41.6878 6.7986 40.4074L19.2002 12.8055C19.6027 11.8909 20.1148 11.2142 20.7367 10.7752C21.3952 10.3362 22.2 10.1167 23.1512 10.1167C24.1024 10.1167 24.8889 10.3362 25.5108 10.7752C26.1693 11.2142 26.6998 11.8909 27.1022 12.8055L39.5038 40.4074C40.0891 41.6878 40.3818 42.8951 40.3818 44.0291C40.3818 45.5656 39.8879 46.8277 38.9002 47.8155C37.9125 48.8032 36.5223 49.3702 34.7297 49.5166L30.1203 39.4745H16.1273L11.5178 49.5166ZM27.6509 32.5603L21.9988 18.5125L21.2306 18.8417L22.7122 22.5183L18.5417 32.5603H27.6509ZM45.3338 14.2871C45.3338 13.2262 45.7179 12.3482 46.4862 11.6532C47.291 10.9581 48.2604 10.6105 49.3945 10.6105H63.8265C67.9238 10.6105 71.0699 11.6714 73.2649 13.7933C75.4965 15.8785 76.6123 18.86 76.6123 22.7378C76.6123 24.8962 76.1733 26.7071 75.2953 28.1704C74.4539 29.6337 73.1369 30.7861 71.3443 31.6275V31.847C74.527 33.2737 76.1184 35.9626 76.1184 39.9135V43.6999C76.1184 45.6022 75.4233 47.0472 74.0332 48.035C72.6796 49.0227 70.6858 49.5166 68.0518 49.5166V40.1879C68.0518 38.3588 67.686 37.0235 66.9544 36.1821C66.2593 35.3041 65.1801 34.8651 63.7168 34.8651H53.2906V43.6999C53.2906 45.6022 52.6138 47.0472 51.2602 48.035C49.9067 49.0227 47.9312 49.5166 45.3338 49.5166V14.2871ZM63.3875 28.0058C65.0703 28.0058 66.3507 27.5485 67.2287 26.6339C68.1067 25.7193 68.5457 24.4023 68.5457 22.6829C68.5457 20.8904 68.125 19.5734 67.2836 18.732C66.4788 17.8906 65.1801 17.4699 63.3875 17.4699H53.2906V28.0058H63.3875ZM98.0639 49.5166C94.7715 49.5166 91.8265 48.8764 89.2291 47.596C86.6317 46.3156 84.6014 44.5413 83.1381 42.2731C81.7113 39.9684 80.9979 37.3527 80.9979 34.4261V25.0974C80.9979 22.1708 81.693 19.5734 83.0832 17.3052C84.5099 15.0371 86.4854 13.2811 89.0096 12.0373C91.5704 10.7569 94.4788 10.1167 97.7347 10.1167C100.991 10.1167 103.899 10.6105 106.46 11.5983C109.021 12.5494 110.996 13.903 112.386 15.659C113.813 17.415 114.526 19.4088 114.526 21.6403C114.526 23.1036 114.051 24.256 113.1 25.0974C112.148 25.9022 110.85 26.3047 109.203 26.3047C108.252 26.3047 107.319 26.1766 106.405 25.9205C106.515 25.1523 106.569 24.2194 106.569 23.1219C106.569 21.3659 105.746 19.9392 104.1 18.8417C102.454 17.7076 100.332 17.1406 97.7347 17.1406C95.1739 17.1406 93.0886 17.8906 91.479 19.3905C89.8693 20.8538 89.0645 22.7561 89.0645 25.0974V34.4261C89.0645 36.804 89.8876 38.7429 91.5339 40.2428C93.2167 41.7427 95.3934 42.4926 98.0639 42.4926C100.661 42.4926 102.765 41.9439 104.374 40.8464C106.021 39.7489 106.844 38.3222 106.844 36.5662C106.844 35.3589 106.789 34.481 106.679 33.9322C107.667 33.7127 108.563 33.603 109.368 33.603C111.014 33.603 112.331 34.0237 113.319 34.8651C114.307 35.7065 114.801 36.8589 114.801 38.3222C114.801 40.4806 114.087 42.4195 112.661 44.1389C111.27 45.8217 109.295 47.1387 106.734 48.0898C104.21 49.041 101.32 49.5166 98.0639 49.5166ZM120.812 15.9882C120.812 14.1591 121.507 12.7324 122.897 11.708C124.324 10.6471 126.318 10.1167 128.879 10.1167V43.645C128.879 45.5107 128.165 46.9558 126.738 47.9801C125.348 49.0044 123.373 49.5166 120.812 49.5166V15.9882ZM140.066 49.0227C138.969 49.0227 138.017 48.6752 137.213 47.9801C136.408 47.2484 136.005 46.3704 136.005 45.3461V14.2871C136.005 13.2628 136.389 12.4031 137.158 11.708C137.963 10.9764 138.932 10.6105 140.066 10.6105H154.608C158.266 10.6105 161.174 11.5983 163.333 13.5738C165.528 15.5492 166.625 18.2015 166.625 21.5306C166.625 23.0305 166.205 24.4755 165.363 25.8657C164.558 27.2192 163.479 28.2984 162.126 29.1033V29.3228C163.991 29.9812 165.473 31.0604 166.57 32.5603C167.668 34.0603 168.217 35.7248 168.217 37.5539C168.217 39.7855 167.686 41.7793 166.625 43.5353C165.564 45.2547 164.083 46.6082 162.181 47.596C160.278 48.5471 158.101 49.0227 155.65 49.0227H140.066ZM154.498 26.4693C155.632 26.4693 156.583 26.0303 157.352 25.1523C158.156 24.2377 158.559 23.1402 158.559 21.8598C158.559 20.4697 158.193 19.3905 157.461 18.6222C156.73 17.8174 155.742 17.415 154.498 17.415H143.852V26.4693H154.498ZM155.596 42.2183C156.986 42.2183 158.083 41.8159 158.888 41.011C159.729 40.1696 160.15 39.0538 160.15 37.6637C160.15 36.2369 159.748 35.1395 158.943 34.3712C158.138 33.5664 157.022 33.164 155.596 33.164H143.852V42.2183H155.596ZM187.169 49.5166C184.169 49.5166 181.407 48.9312 178.883 47.7606C176.358 46.5534 174.346 44.9437 172.846 42.9316C171.383 40.883 170.651 38.688 170.651 36.3467V23.2866C170.651 20.9452 171.383 18.7686 172.846 16.7565C174.346 14.7078 176.358 13.0982 178.883 11.9275C181.407 10.7203 184.169 10.1167 187.169 10.1167C190.168 10.1167 192.93 10.7203 195.455 11.9275C197.979 13.0982 199.973 14.7078 201.436 16.7565C202.936 18.7686 203.686 20.9452 203.686 23.2866V36.3467C203.686 38.688 202.936 40.883 201.436 42.9316C199.973 44.9437 197.979 46.5534 195.455 47.7606C192.93 48.9312 190.168 49.5166 187.169 49.5166ZM187.169 42.4926C189.656 42.4926 191.687 41.9073 193.26 40.7367C194.833 39.566 195.619 38.0478 195.619 36.1821V23.4512C195.619 21.5854 194.833 20.0673 193.26 18.8966C191.687 17.7259 189.656 17.1406 187.169 17.1406C184.681 17.1406 182.651 17.7259 181.077 18.8966C179.504 20.0673 178.718 21.5854 178.718 23.4512V36.1821C178.718 38.0478 179.504 39.566 181.077 40.7367C182.651 41.9073 184.681 42.4926 187.169 42.4926Z" fill="url(#paint0_linear_81_151)"/>
<path d="M11.5178 49.5166L11.0691 54.9008L14.8468 55.2156L16.4281 51.7705L11.5178 49.5166ZM7.40222 47.8155L11.2227 43.995H11.2227L7.40222 47.8155ZM6.7986 40.4074L11.7124 42.6537L11.7197 42.6377L11.7269 42.6217L6.7986 40.4074ZM19.2002 12.8055L24.1286 15.0198L24.1372 15.0007L24.1456 14.9815L19.2002 12.8055ZM20.7367 10.7752L17.7397 6.27967L17.6798 6.31962L17.621 6.36116L20.7367 10.7752ZM25.5108 10.7752L22.395 15.1892L22.4539 15.2307L22.5138 15.2707L25.5108 10.7752ZM27.1022 12.8055L22.1568 14.9815L22.1653 15.0007L22.1739 15.0198L27.1022 12.8055ZM39.5038 40.4074L34.5755 42.6217L34.5827 42.6377L34.59 42.6537L39.5038 40.4074ZM38.9002 47.8155L35.0798 43.995L38.9002 47.8155ZM34.7297 49.5166L29.8194 51.7705L31.3979 55.2094L35.1693 54.9016L34.7297 49.5166ZM30.1203 39.4745L35.0306 37.2206L33.5852 34.0716H30.1203V39.4745ZM16.1273 39.4745V34.0716H12.6624L11.2169 37.2206L16.1273 39.4745ZM27.6509 32.5603V37.9633H35.6486L32.6633 30.5436L27.6509 32.5603ZM21.9988 18.5125L27.0113 16.4958L24.9489 11.3699L19.8705 13.5464L21.9988 18.5125ZM21.2306 18.8417L19.1023 13.8757L14.2434 15.9581L16.2193 20.8612L21.2306 18.8417ZM22.7122 22.5183L27.7019 24.5905L28.5497 22.5491L27.7235 20.4988L22.7122 22.5183ZM18.5417 32.5603L13.552 30.4881L10.4476 37.9633H18.5417V32.5603ZM11.9665 44.1323C11.543 44.097 11.3209 44.0235 11.2358 43.9884C11.1651 43.9591 11.1829 43.9552 11.2227 43.995L3.58178 51.6359C5.6894 53.7435 8.38182 54.6769 11.0691 54.9008L11.9665 44.1323ZM11.2227 43.995C11.2188 43.9912 11.2334 44.0053 11.2552 44.0382C11.2773 44.0716 11.2975 44.1099 11.3126 44.1479C11.3274 44.1854 11.3312 44.2069 11.3307 44.2038C11.3299 44.1995 11.3235 44.1621 11.3235 44.084H0.517695C0.517695 46.8999 1.50103 49.5551 3.58178 51.6359L11.2227 43.995ZM11.3235 44.084C11.3235 43.8294 11.3852 43.3696 11.7124 42.6537L1.88479 38.1611C1.04137 40.0061 0.517695 41.9973 0.517695 44.084H11.3235ZM11.7269 42.6217L24.1286 15.0198L14.2719 10.5912L1.87029 38.1931L11.7269 42.6217ZM24.1456 14.9815C24.2733 14.6913 24.246 14.9114 23.8525 15.1892L17.621 6.36116C15.9837 7.5169 14.932 9.0906 14.2549 10.6296L24.1456 14.9815ZM23.7337 15.2707C23.5542 15.3904 23.3832 15.4591 23.2558 15.4938C23.1354 15.5267 23.09 15.5196 23.1512 15.5196V4.71376C21.3518 4.71376 19.4515 5.13846 17.7397 6.27967L23.7337 15.2707ZM23.1512 15.5196C23.2146 15.5196 23.1519 15.5272 23.0022 15.4854C22.8433 15.441 22.6249 15.3514 22.395 15.1892L28.6266 6.36116C26.8879 5.13388 24.9375 4.71376 23.1512 4.71376V15.5196ZM22.5138 15.2707C22.326 15.1454 22.2084 15.0193 22.1501 14.945C22.0963 14.8763 22.1088 14.8723 22.1568 14.9815L32.0475 10.6296C31.3384 9.01799 30.2229 7.42305 28.5078 6.27967L22.5138 15.2707ZM22.1739 15.0198L34.5755 42.6217L44.4321 38.1931L32.0305 10.5912L22.1739 15.0198ZM34.59 42.6537C34.9288 43.3948 34.9789 43.8338 34.9789 44.0291H45.7847C45.7847 41.9563 45.2495 39.9808 44.4176 38.1611L34.59 42.6537ZM34.9789 44.0291C34.9789 44.1237 34.9713 44.1752 34.9685 44.1911C34.9659 44.2059 34.9671 44.1923 34.98 44.1593C34.9932 44.1255 35.0124 44.0876 35.036 44.0517C35.0595 44.0161 35.0775 43.9973 35.0798 43.995L42.7206 51.6359C44.8277 49.5288 45.7847 46.8412 45.7847 44.0291H34.9789ZM35.0798 43.995C35.1317 43.9431 35.1556 43.9464 35.0762 43.9788C34.9816 44.0174 34.7417 44.0947 34.2901 44.1316L35.1693 54.9016C37.8638 54.6816 40.5925 53.764 42.7206 51.6359L35.0798 43.995ZM39.6401 47.2627L35.0306 37.2206L25.2099 41.7285L29.8194 51.7705L39.6401 47.2627ZM30.1203 34.0716H16.1273V44.8775H30.1203V34.0716ZM11.2169 37.2206L6.60748 47.2627L16.4281 51.7705L21.0376 41.7285L11.2169 37.2206ZM32.6633 30.5436L27.0113 16.4958L16.9864 20.5292L22.6385 34.5771L32.6633 30.5436ZM19.8705 13.5464L19.1023 13.8757L23.3589 23.8078L24.1272 23.4785L19.8705 13.5464ZM16.2193 20.8612L17.7009 24.5378L27.7235 20.4988L26.2419 16.8222L16.2193 20.8612ZM17.7225 20.4461L13.552 30.4881L23.5315 34.6326L27.7019 24.5905L17.7225 20.4461ZM18.5417 37.9633H27.6509V27.1574H18.5417V37.9633ZM46.4862 11.6532L42.9547 7.56411L42.9075 7.60487L42.8613 7.6467L46.4862 11.6532ZM73.2649 13.7933L69.5098 17.6779L69.5427 17.7097L69.5761 17.7409L73.2649 13.7933ZM75.2953 28.1704L70.6623 25.3906L70.6365 25.4337L70.6115 25.4772L75.2953 28.1704ZM71.3443 31.6275L69.0486 26.7366L65.9414 28.195V31.6275H71.3443ZM71.3443 31.847H65.9414V35.3459L69.1342 36.7772L71.3443 31.847ZM74.0332 48.035L70.9038 43.6306L70.8759 43.6504L70.8483 43.6705L74.0332 48.035ZM68.0518 49.5166H62.6489V54.9195H68.0518V49.5166ZM66.9544 36.1821L62.7182 39.5357L62.7956 39.6333L62.8773 39.7273L66.9544 36.1821ZM53.2906 34.8651V29.4622H47.8877V34.8651H53.2906ZM51.2602 48.035L48.0754 43.6705L51.2602 48.035ZM45.3338 49.5166H39.9309V54.9195H45.3338V49.5166ZM67.2287 26.6339L71.1263 30.3756L67.2287 26.6339ZM67.2836 18.732L63.3792 22.4666L63.4207 22.51L63.4632 22.5524L67.2836 18.732ZM53.2906 17.4699V12.0669H47.8877V17.4699H53.2906ZM53.2906 28.0058H47.8877V33.4087H53.2906V28.0058ZM50.7367 14.2871C50.7367 14.4219 50.7091 14.6848 50.5718 14.9985C50.4332 15.3154 50.2473 15.5363 50.111 15.6596L42.8613 7.6467C40.9303 9.39376 39.9309 11.7413 39.9309 14.2871H50.7367ZM50.0176 15.7422C49.9335 15.8148 49.8017 15.8992 49.6401 15.9572C49.4836 16.0133 49.3863 16.0135 49.3945 16.0135V5.20763C47.0572 5.20763 44.8093 5.96238 42.9547 7.56411L50.0176 15.7422ZM49.3945 16.0135H63.8265V5.20763H49.3945V16.0135ZM63.8265 16.0135C67.0141 16.0135 68.6276 16.8251 69.5098 17.6779L77.0201 9.90863C73.5123 6.51776 68.8335 5.20763 63.8265 5.20763V16.0135ZM69.5761 17.7409C70.4362 18.5446 71.2094 19.9279 71.2094 22.7378H82.0152C82.0152 17.7922 80.5568 13.2124 76.9537 9.84559L69.5761 17.7409ZM71.2094 22.7378C71.2094 24.1731 70.9193 24.9623 70.6623 25.3906L79.9282 30.9502C81.4273 28.4518 82.0152 25.6194 82.0152 22.7378H71.2094ZM70.6115 25.4772C70.4127 25.8229 70.017 26.282 69.0486 26.7366L73.6401 36.5184C76.2568 35.2901 78.495 33.4446 79.9791 30.8636L70.6115 25.4772ZM65.9414 31.6275V31.847H76.7472V31.6275H65.9414ZM69.1342 36.7772C69.8306 37.0893 70.1135 37.4122 70.2753 37.6855C70.4633 38.0033 70.7155 38.6536 70.7155 39.9135H81.5213C81.5213 37.2225 80.9778 34.5529 79.5745 32.1819C78.1449 29.7663 76.0408 28.0314 73.5544 26.9168L69.1342 36.7772ZM70.7155 39.9135V43.6999H81.5213V39.9135H70.7155ZM70.7155 43.6999C70.7155 43.8472 70.702 43.9232 70.698 43.9424C70.6946 43.959 70.6994 43.9281 70.7282 43.8684C70.7577 43.807 70.7981 43.7449 70.8433 43.6922C70.8873 43.6409 70.9151 43.6226 70.9038 43.6306L77.1626 52.4393C80.1601 50.3095 81.5213 47.1172 81.5213 43.6999H70.7155ZM70.8483 43.6705C70.813 43.6963 70.1498 44.1137 68.0518 44.1137V54.9195C71.2218 54.9195 74.5462 54.3491 77.218 52.3994L70.8483 43.6705ZM73.4548 49.5166V40.1879H62.6489V49.5166H73.4548ZM73.4548 40.1879C73.4548 37.8347 73.0188 34.9223 71.0314 32.6368L62.8773 39.7273C62.5984 39.4066 62.5474 39.1721 62.5666 39.2422C62.5757 39.2755 62.5973 39.3666 62.6161 39.5291C62.6348 39.6912 62.6489 39.9082 62.6489 40.1879H73.4548ZM71.1905 32.8285C69.1729 30.28 66.2832 29.4622 63.7168 29.4622V40.268C63.9226 40.268 63.8371 40.3004 63.5878 40.199C63.3002 40.082 62.9733 39.8578 62.7182 39.5357L71.1905 32.8285ZM63.7168 29.4622H53.2906V40.268H63.7168V29.4622ZM47.8877 34.8651V43.6999H58.6935V34.8651H47.8877ZM47.8877 43.6999C47.8877 43.856 47.8737 43.9415 47.868 43.9701C47.8626 43.9964 47.8647 43.9732 47.8902 43.9188C47.9165 43.8626 47.9546 43.8014 48.0005 43.7465C48.0454 43.6926 48.0775 43.669 48.0754 43.6705L54.4451 52.3994C57.3959 50.2461 58.6935 47.0595 58.6935 43.6999H47.8877ZM48.0754 43.6705C48.0298 43.7038 47.3753 44.1137 45.3338 44.1137V54.9195C48.4871 54.9195 51.7835 54.3416 54.4451 52.3994L48.0754 43.6705ZM50.7367 49.5166V14.2871H39.9309V49.5166H50.7367ZM63.3875 33.4087C66.04 33.4087 68.9278 32.6658 71.1263 30.3756L63.3311 22.8922C63.4135 22.8065 63.5049 22.7325 63.5966 22.6743C63.687 22.6168 63.7578 22.5871 63.7927 22.5746C63.8557 22.5522 63.7513 22.6029 63.3875 22.6029V33.4087ZM71.1263 30.3756C73.272 28.1405 73.9486 25.2901 73.9486 22.6829H63.1428C63.1428 23.0948 63.0889 23.2574 63.0908 23.2517C63.093 23.245 63.1096 23.1982 63.1519 23.1265C63.195 23.0534 63.2548 22.9717 63.3311 22.8922L71.1263 30.3756ZM73.9486 22.6829C73.9486 20.1733 73.3722 17.1797 71.104 14.9115L63.4632 22.5524C63.3306 22.4198 63.2355 22.2885 63.1717 22.1795C63.1096 22.0732 63.0864 22.004 63.0835 21.9949C63.0811 21.9873 63.0968 22.0345 63.1127 22.1521C63.1286 22.2697 63.1428 22.4437 63.1428 22.6829H73.9486ZM71.188 14.9974C68.9262 12.6328 65.8713 12.0669 63.3875 12.0669V22.8728C63.6271 22.8728 63.7983 22.887 63.9107 22.9023C64.0233 22.9176 64.0609 22.9318 64.0409 22.9253C64.0192 22.9183 63.9327 22.8878 63.8076 22.8128C63.6794 22.7358 63.5285 22.6226 63.3792 22.4666L71.188 14.9974ZM63.3875 12.0669H53.2906V22.8728H63.3875V12.0669ZM47.8877 17.4699V28.0058H58.6935V17.4699H47.8877ZM53.2906 33.4087H63.3875V22.6029H53.2906V33.4087ZM89.2291 47.596L86.8402 52.4421L89.2291 47.596ZM83.1381 42.2731L78.5441 45.117L78.5707 45.1598L78.598 45.2022L83.1381 42.2731ZM83.0832 17.3052L78.5098 14.4284L78.4931 14.4551L78.4766 14.4819L83.0832 17.3052ZM89.0096 12.0373L91.3977 16.8838L91.4118 16.8768L91.4259 16.8698L89.0096 12.0373ZM106.46 11.5983L104.515 16.6392L104.547 16.6514L104.578 16.6631L106.46 11.5983ZM112.386 15.659L108.15 19.0126L108.171 19.0395L108.193 19.066L112.386 15.659ZM113.1 25.0974L116.59 29.2219L116.635 29.1835L116.679 29.1442L113.1 25.0974ZM106.405 25.9205L101.056 25.1564L100.386 29.846L104.948 31.1233L106.405 25.9205ZM104.1 18.8417L101.035 23.2911L101.069 23.3144L101.103 23.3372L104.1 18.8417ZM91.479 19.3905L95.1134 23.3883L95.138 23.3659L95.1623 23.3433L91.479 19.3905ZM91.5339 40.2428L87.8951 44.2366L87.9169 44.2565L87.9389 44.2761L91.5339 40.2428ZM104.374 40.8464L101.377 36.3509L101.354 36.3665L101.331 36.3824L104.374 40.8464ZM106.679 33.9322L105.507 28.658L100.344 29.8053L101.381 34.9918L106.679 33.9322ZM113.319 34.8651L109.815 38.978L113.319 34.8651ZM112.661 44.1389L108.503 40.6887L108.495 40.6979L112.661 44.1389ZM106.734 48.0898L104.853 43.025L104.841 43.0295L104.829 43.034L106.734 48.0898ZM98.0639 44.1137C95.4859 44.1137 93.3764 43.6167 91.618 42.7499L86.8402 52.4421C90.2766 54.1361 94.057 54.9195 98.0639 54.9195V44.1137ZM91.618 42.7499C89.8317 41.8693 88.5724 40.7303 87.6781 39.3441L78.598 45.2022C80.6303 48.3523 83.4318 50.7618 86.8402 52.4421L91.618 42.7499ZM87.732 39.4293C86.8762 38.0469 86.4009 36.4312 86.4009 34.4261H75.595C75.595 38.2742 76.5464 41.8899 78.5441 45.117L87.732 39.4293ZM86.4009 34.4261V25.0974H75.595V34.4261H86.4009ZM86.4009 25.0974C86.4009 23.0643 86.8717 21.4633 87.6897 20.1286L78.4766 14.4819C76.5144 17.6835 75.595 21.2773 75.595 25.0974H86.4009ZM87.6565 20.182C88.5238 18.8033 89.723 17.709 91.3977 16.8838L86.6215 7.1908C83.2478 8.85322 80.496 11.2709 78.5098 14.4284L87.6565 20.182ZM91.4259 16.8698C93.1394 16.013 95.2018 15.5196 97.7347 15.5196V4.71376C93.7558 4.71376 90.0015 5.5007 86.5934 7.20477L91.4259 16.8698ZM97.7347 15.5196C100.447 15.5196 102.679 15.9308 104.515 16.6392L108.404 6.55736C105.119 5.29031 101.534 4.71376 97.7347 4.71376V15.5196ZM104.578 16.6631C106.416 17.3457 107.496 18.186 108.15 19.0126L116.622 12.3054C114.496 9.61999 111.625 7.75317 108.341 6.53346L104.578 16.6631ZM108.193 19.066C108.849 19.8735 109.123 20.6683 109.123 21.6403H119.929C119.929 18.1492 118.777 14.9565 116.579 12.252L108.193 19.066ZM109.123 21.6403C109.123 21.7859 109.101 21.7217 109.175 21.5409C109.212 21.4527 109.263 21.3571 109.33 21.2639C109.396 21.1709 109.464 21.0999 109.52 21.0506L116.679 29.1442C118.972 27.1163 119.929 24.3908 119.929 21.6403H109.123ZM109.61 20.9729C109.667 20.9239 109.723 20.8882 109.766 20.8647C109.809 20.8418 109.828 20.8372 109.813 20.842C109.777 20.8531 109.595 20.9017 109.203 20.9017V31.7076C111.712 31.7076 114.387 31.0858 116.59 29.2219L109.61 20.9729ZM109.203 20.9017C108.744 20.9017 108.301 20.8408 107.862 20.7177L104.948 31.1233C106.338 31.5124 107.761 31.7076 109.203 31.7076V20.9017ZM111.753 26.6846C111.911 25.5836 111.972 24.3795 111.972 23.1219H101.167C101.167 24.0594 101.118 24.721 101.056 25.1564L111.753 26.6846ZM111.972 23.1219C111.972 19.3068 110.023 16.297 107.097 14.3462L101.103 23.3372C101.239 23.4278 101.302 23.4877 101.318 23.5048C101.333 23.5197 101.308 23.4975 101.272 23.4348C101.235 23.3703 101.204 23.2945 101.184 23.2195C101.165 23.1464 101.167 23.1083 101.167 23.1219H111.972ZM107.165 14.3924C104.382 12.4753 101.102 11.7377 97.7347 11.7377V22.5435C99.5625 22.5435 100.525 22.9399 101.035 23.2911L107.165 14.3924ZM97.7347 11.7377C94.0464 11.7377 90.5679 12.8544 87.7957 15.4377L95.1623 23.3433C95.6094 22.9267 96.3013 22.5435 97.7347 22.5435V11.7377ZM87.8446 15.3926C85.0156 17.9644 83.6616 21.3642 83.6616 25.0974H94.4674C94.4674 24.148 94.7231 23.7431 95.1134 23.3883L87.8446 15.3926ZM83.6616 25.0974V34.4261H94.4674V25.0974H83.6616ZM83.6616 34.4261C83.6616 38.2083 85.0423 41.6374 87.8951 44.2366L95.1727 36.249C94.733 35.8484 94.4674 35.3996 94.4674 34.4261H83.6616ZM87.9389 44.2761C90.7888 46.8163 94.3262 47.8955 98.0639 47.8955V37.0897C96.4605 37.0897 95.6445 36.6691 95.1288 36.2094L87.9389 44.2761ZM98.0639 47.8955C101.392 47.8955 104.657 47.1932 107.418 45.3104L101.331 36.3824C100.873 36.6946 99.931 37.0897 98.0639 37.0897V47.8955ZM107.371 45.3419C110.298 43.3911 112.247 40.3813 112.247 36.5662H101.441C101.441 36.5798 101.44 36.5417 101.459 36.4686C101.478 36.3936 101.509 36.3178 101.547 36.2533C101.583 36.1906 101.607 36.1684 101.593 36.1833C101.576 36.2004 101.513 36.2603 101.377 36.3509L107.371 45.3419ZM112.247 36.5662C112.247 35.3138 112.199 33.9805 111.977 32.8726L101.381 34.9918C101.369 34.9331 101.391 35.0227 101.41 35.3393C101.429 35.6336 101.441 36.0369 101.441 36.5662H112.247ZM107.851 39.2065C108.548 39.0517 109.043 39.0059 109.368 39.0059V28.2001C108.084 28.2001 106.786 28.3737 105.507 28.658L107.851 39.2065ZM109.368 39.0059C109.736 39.0059 109.91 39.0534 109.946 39.0652C109.963 39.0706 109.952 39.0685 109.921 39.0518C109.89 39.0347 109.853 39.0098 109.815 38.978L116.823 30.7521C114.618 28.874 111.944 28.2001 109.368 28.2001V39.0059ZM109.815 38.978C109.766 38.9358 109.699 38.8694 109.631 38.7771C109.562 38.6842 109.505 38.585 109.464 38.4887C109.379 38.2895 109.398 38.2013 109.398 38.3222H120.204C120.204 35.5024 119.178 32.7584 116.823 30.7521L109.815 38.978ZM109.398 38.3222C109.398 39.1732 109.156 39.902 108.503 40.6887L116.818 47.589C119.019 44.937 120.204 41.7879 120.204 38.3222H109.398ZM108.495 40.6979C107.845 41.4851 106.744 42.3226 104.853 43.025L108.615 53.1547C111.846 51.9548 114.696 50.1583 116.826 47.5799L108.495 40.6979ZM104.829 43.034C103.025 43.7136 100.8 44.1137 98.0639 44.1137V54.9195C101.84 54.9195 105.394 54.3684 108.639 53.1457L104.829 43.034ZM122.897 11.708L126.102 16.0577L126.112 16.0507L126.121 16.0437L122.897 11.708ZM128.879 10.1167H134.281V4.71376H128.879V10.1167ZM126.738 47.9801L123.587 43.5912L123.56 43.6106L123.533 43.6304L126.738 47.9801ZM120.812 49.5166H115.409V54.9195H120.812V49.5166ZM126.215 15.9882C126.215 15.8732 126.226 15.8217 126.226 15.8198C126.226 15.8188 126.224 15.828 126.218 15.8455C126.212 15.8631 126.203 15.8861 126.19 15.9126C126.178 15.9392 126.162 15.9658 126.146 15.9911C126.129 16.0164 126.113 16.037 126.1 16.0527C126.072 16.0855 126.065 16.0848 126.102 16.0577L119.692 7.35839C116.827 9.46971 115.409 12.5615 115.409 15.9882H126.215ZM126.121 16.0437C126.286 15.9214 126.986 15.5196 128.879 15.5196V4.71376C125.65 4.71376 122.362 5.37281 119.673 7.3724L126.121 16.0437ZM123.476 10.1167V43.645H134.281V10.1167H123.476ZM123.476 43.645C123.476 43.7671 123.464 43.8232 123.463 43.8274C123.463 43.829 123.471 43.7932 123.499 43.7364C123.512 43.7095 123.528 43.6825 123.545 43.6568C123.562 43.6311 123.578 43.6102 123.592 43.5944C123.62 43.5614 123.627 43.5629 123.587 43.5912L129.889 52.369C132.83 50.2577 134.281 47.1237 134.281 43.645H123.476ZM123.533 43.6304C123.423 43.7115 122.75 44.1137 120.812 44.1137V54.9195C123.995 54.9195 127.273 54.2973 129.943 52.3297L123.533 43.6304ZM126.215 49.5166V15.9882H115.409V49.5166H126.215ZM137.213 47.9801L133.578 51.9779L133.629 52.0242L133.681 52.0691L137.213 47.9801ZM137.158 11.708L140.783 15.7145L140.792 15.7059L137.158 11.708ZM163.333 13.5738L159.685 17.5593L159.702 17.5746L159.719 17.5897L163.333 13.5738ZM165.363 25.8657L160.741 23.068L160.73 23.0861L160.719 23.1044L165.363 25.8657ZM162.126 29.1033L159.364 24.4593L156.723 26.0299V29.1033H162.126ZM162.126 29.3228H156.723V33.1454L160.327 34.4176L162.126 29.3228ZM166.57 32.5603L170.931 29.3699V29.3699L166.57 32.5603ZM166.625 43.5353L171.223 46.3724L171.237 46.3508L171.25 46.3292L166.625 43.5353ZM162.18 47.596L164.597 52.4285L164.634 52.41L164.67 52.391L162.18 47.596ZM157.352 25.1523L153.296 21.583L153.29 21.5887L153.285 21.5944L157.352 25.1523ZM157.461 18.6222L153.463 22.2566L153.506 22.303L153.549 22.3484L157.461 18.6222ZM143.852 17.415V12.0121H138.449V17.415H143.852ZM143.852 26.4693H138.449V31.8722H143.852V26.4693ZM158.888 41.011L162.708 44.8315L158.888 41.011ZM158.943 34.3712L155.122 38.1916L155.167 38.2361L155.212 38.2794L158.943 34.3712ZM143.852 33.164V27.7611H138.449V33.164H143.852ZM143.852 42.2183H138.449V47.6212H143.852V42.2183ZM140.066 43.6198C140.097 43.6198 140.217 43.6265 140.384 43.6873C140.553 43.749 140.677 43.8329 140.744 43.891L133.681 52.0691C135.501 53.641 137.717 54.4256 140.066 54.4256V43.6198ZM140.847 43.9823C140.916 44.0448 141.08 44.2196 141.219 44.5217C141.361 44.8314 141.408 45.1293 141.408 45.3461H130.602C130.602 47.9957 131.726 50.2937 133.578 51.9779L140.847 43.9823ZM141.408 45.3461V14.2871H130.602V45.3461H141.408ZM141.408 14.2871C141.408 14.4671 141.371 14.7555 141.226 15.0782C141.083 15.3994 140.899 15.6094 140.783 15.7145L133.533 7.70158C131.647 9.40759 130.602 11.7163 130.602 14.2871H141.408ZM140.792 15.7059C140.716 15.775 140.58 15.8706 140.396 15.9399C140.216 16.0078 140.089 16.0135 140.066 16.0135V5.20763C137.651 5.20763 135.368 6.03294 133.523 7.71021L140.792 15.7059ZM140.066 16.0135H154.608V5.20763H140.066V16.0135ZM154.608 16.0135C157.268 16.0135 158.755 16.7083 159.685 17.5593L166.981 9.58818C163.594 6.48825 159.264 5.20763 154.608 5.20763V16.0135ZM159.719 17.5897C160.624 18.4042 161.222 19.5167 161.222 21.5306H172.028C172.028 16.8863 170.432 12.6943 166.947 9.55781L159.719 17.5897ZM161.222 21.5306C161.222 21.9623 161.116 22.4488 160.741 23.068L169.985 28.6633C171.293 26.5022 172.028 24.0987 172.028 21.5306H161.222ZM160.719 23.1044C160.375 23.6831 159.943 24.1151 159.364 24.4593L164.887 33.7473C167.015 32.4817 168.742 30.7553 170.007 28.627L160.719 23.1044ZM156.723 29.1033V29.3228H167.529V29.1033H156.723ZM160.327 34.4176C161.237 34.7385 161.798 35.1872 162.21 35.7508L170.931 29.3699C169.148 26.9337 166.746 25.224 163.924 24.2279L160.327 34.4176ZM162.21 35.7508C162.642 36.3409 162.814 36.8917 162.814 37.5539H173.62C173.62 34.5579 172.694 31.7796 170.931 29.3699L162.21 35.7508ZM162.814 37.5539C162.814 38.89 162.508 39.9017 162.001 40.7413L171.25 46.3292C172.864 43.6569 173.62 40.681 173.62 37.5539H162.814ZM162.027 40.6981C161.511 41.5351 160.781 42.2347 159.691 42.8009L164.67 52.391C167.384 50.9817 169.618 48.9742 171.223 46.3724L162.027 40.6981ZM159.764 42.7635C158.719 43.2861 157.391 43.6198 155.65 43.6198V54.4256C158.812 54.4256 161.837 53.8081 164.597 52.4285L159.764 42.7635ZM155.65 43.6198H140.066V54.4256H155.65V43.6198ZM154.498 31.8722C157.241 31.8722 159.657 30.7221 161.418 28.7101L153.285 21.5944C153.344 21.5279 153.51 21.3671 153.798 21.2344C154.089 21.0999 154.349 21.0664 154.498 21.0664V31.8722ZM161.408 28.7216C163.128 26.7671 163.962 24.3811 163.962 21.8598H153.156C153.156 21.9259 153.147 21.8845 153.184 21.7833C153.201 21.7367 153.223 21.6918 153.247 21.6523C153.27 21.6132 153.289 21.5901 153.296 21.583L161.408 28.7216ZM163.962 21.8598C163.962 19.5266 163.33 16.9502 161.374 14.8961L153.549 22.3484C153.448 22.243 153.364 22.1295 153.296 22.0162C153.23 21.9039 153.19 21.8082 153.167 21.7424C153.125 21.6159 153.156 21.6295 153.156 21.8598H163.962ZM161.459 14.9878C159.552 12.8898 157.023 12.0121 154.498 12.0121V22.8179C154.536 22.8179 154.385 22.8229 154.133 22.7204C153.865 22.611 153.629 22.4389 153.463 22.2566L161.459 14.9878ZM154.498 12.0121H143.852V22.8179H154.498V12.0121ZM138.449 17.415V26.4693H149.255V17.415H138.449ZM143.852 31.8722H154.498V21.0664H143.852V31.8722ZM155.596 47.6212C158.081 47.6212 160.674 46.8656 162.708 44.8315L155.068 37.1906C155.144 37.1144 155.234 37.0411 155.335 36.9774C155.435 36.9139 155.527 36.871 155.601 36.8438C155.749 36.7896 155.773 36.8154 155.596 36.8154V47.6212ZM162.708 44.8315C164.733 42.8065 165.553 40.2265 165.553 37.6637H154.747C154.747 37.8137 154.725 37.7803 154.779 37.637C154.806 37.5666 154.845 37.4849 154.9 37.4004C154.954 37.3159 155.013 37.2453 155.068 37.1906L162.708 44.8315ZM165.553 37.6637C165.553 35.2002 164.827 32.519 162.673 30.463L155.212 38.2794C155.108 38.1801 155.014 38.0663 154.935 37.9443C154.857 37.8231 154.806 37.7138 154.776 37.6305C154.716 37.4683 154.747 37.4495 154.747 37.6637H165.553ZM162.763 30.5508C160.703 28.4905 158.072 27.7611 155.596 27.7611V38.5669C155.807 38.5669 155.805 38.5972 155.669 38.5482C155.6 38.5233 155.508 38.4819 155.406 38.4173C155.302 38.3524 155.206 38.2753 155.122 38.1916L162.763 30.5508ZM155.596 27.7611H143.852V38.5669H155.596V27.7611ZM138.449 33.164V42.2183H149.255V33.164H138.449ZM143.852 47.6212H155.596V36.8154H143.852V47.6212ZM178.883 47.7606L176.551 52.6347L176.58 52.6486L176.609 52.6621L178.883 47.7606ZM172.846 42.9316L168.45 46.072L168.482 46.1167L168.515 46.1608L172.846 42.9316ZM172.846 16.7565L168.487 13.5648L168.482 13.5717L168.477 13.5786L172.846 16.7565ZM178.883 11.9275L181.156 16.829L181.185 16.8155L181.214 16.8017L178.883 11.9275ZM195.455 11.9275L193.124 16.8017L193.152 16.8155L193.181 16.829L195.455 11.9275ZM201.436 16.7565L197.039 19.8969L197.071 19.9416L197.104 19.9856L201.436 16.7565ZM201.436 42.9316L197.077 39.7399L197.071 39.7468L197.066 39.7538L201.436 42.9316ZM195.455 47.7606L197.728 52.6621L197.757 52.6486L197.786 52.6347L195.455 47.7606ZM193.26 40.7367L196.485 45.071L193.26 40.7367ZM193.26 18.8966L196.485 14.5622L193.26 18.8966ZM181.077 18.8966L184.303 23.231L181.077 18.8966ZM181.077 40.7367L184.303 36.4023L181.077 40.7367ZM187.169 44.1137C184.892 44.1137 182.913 43.6742 181.156 42.8591L176.609 52.6621C179.9 54.1883 183.446 54.9195 187.169 54.9195V44.1137ZM181.214 42.8864C179.388 42.0131 178.096 40.9345 177.178 39.7025L168.515 46.1608C170.596 48.9529 173.329 51.0936 176.551 52.6347L181.214 42.8864ZM177.243 39.7913C176.382 38.5861 176.054 37.4756 176.054 36.3467H165.248C165.248 39.9004 166.384 43.1799 168.45 46.072L177.243 39.7913ZM176.054 36.3467V23.2866H165.248V36.3467H176.054ZM176.054 23.2866C176.054 22.1607 176.379 21.0843 177.216 19.9343L168.477 13.5786C166.387 16.4528 165.248 19.7297 165.248 23.2866H176.054ZM177.206 19.9482C178.115 18.7058 179.379 17.653 181.156 16.829L176.609 7.02607C173.338 8.54334 170.577 10.7098 168.487 13.5648L177.206 19.9482ZM181.214 16.8017C182.958 15.9672 184.916 15.5196 187.169 15.5196V4.71376C183.421 4.71376 179.855 5.47334 176.551 7.05338L181.214 16.8017ZM187.169 15.5196C189.421 15.5196 191.379 15.9672 193.124 16.8017L197.786 7.05338C194.482 5.47334 190.916 4.71376 187.169 4.71376V15.5196ZM193.181 16.829C194.949 17.6486 196.175 18.6871 197.039 19.8969L205.832 13.6161C203.77 10.7286 201.009 8.54773 197.728 7.02607L193.181 16.829ZM197.104 19.9856C197.962 21.136 198.283 22.1947 198.283 23.2866H209.089C209.089 19.6958 207.91 16.4011 205.768 13.5274L197.104 19.9856ZM198.283 23.2866V36.3467H209.089V23.2866H198.283ZM198.283 36.3467C198.283 37.4419 197.959 38.5347 197.077 39.7399L205.795 46.1233C207.913 43.2313 209.089 39.9341 209.089 36.3467H198.283ZM197.066 39.7538C196.194 40.9532 194.94 42.0175 193.124 42.8864L197.786 52.6347C201.017 51.0892 203.751 48.9342 205.805 46.1095L197.066 39.7538ZM193.181 42.8591C191.424 43.6742 189.446 44.1137 187.169 44.1137V54.9195C190.891 54.9195 194.437 54.1883 197.728 52.6621L193.181 42.8591ZM187.169 47.8955C190.503 47.8955 193.755 47.1026 196.485 45.071L190.034 36.4023C189.618 36.712 188.809 37.0897 187.169 37.0897V47.8955ZM196.485 45.071C199.347 42.9417 201.022 39.8549 201.022 36.1821H190.216C190.216 36.267 190.208 36.2995 190.209 36.293C190.211 36.2846 190.218 36.2612 190.232 36.2346C190.245 36.2088 190.251 36.2069 190.231 36.2298C190.209 36.2545 190.151 36.3149 190.034 36.4023L196.485 45.071ZM201.022 36.1821V23.4512H190.216V36.1821H201.022ZM201.022 23.4512C201.022 19.7783 199.347 16.6915 196.485 14.5622L190.034 23.231C190.151 23.3183 190.209 23.3787 190.231 23.4035C190.251 23.4263 190.245 23.4244 190.232 23.3986C190.218 23.3721 190.211 23.3487 190.209 23.3402C190.208 23.3338 190.216 23.3663 190.216 23.4512H201.022ZM196.485 14.5622C193.755 12.5307 190.503 11.7377 187.169 11.7377V22.5435C188.809 22.5435 189.618 22.9212 190.034 23.231L196.485 14.5622ZM187.169 11.7377C183.834 11.7377 180.582 12.5307 177.852 14.5622L184.303 23.231C184.719 22.9212 185.528 22.5435 187.169 22.5435V11.7377ZM177.852 14.5622C174.991 16.6915 173.315 19.7783 173.315 23.4512H184.121C184.121 23.3663 184.13 23.3338 184.128 23.3402C184.126 23.3487 184.119 23.3721 184.105 23.3986C184.092 23.4244 184.086 23.4263 184.106 23.4035C184.128 23.3787 184.186 23.3183 184.303 23.231L177.852 14.5622ZM173.315 23.4512V36.1821H184.121V23.4512H173.315ZM173.315 36.1821C173.315 39.8549 174.991 42.9417 177.852 45.071L184.303 36.4023C184.186 36.3149 184.128 36.2545 184.106 36.2298C184.086 36.2069 184.092 36.2088 184.105 36.2346C184.119 36.2612 184.126 36.2846 184.128 36.293C184.13 36.2995 184.121 36.267 184.121 36.1821H173.315ZM177.852 45.071C180.582 47.1026 183.834 47.8955 187.169 47.8955V37.0897C185.528 37.0897 184.719 36.712 184.303 36.4023L177.852 45.071Z" fill="#411D09" mask="url(#path-2-outside-1_81_151)"/>
<g clip-path="url(#clip0_81_151)">
<mask id="path-4-outside-2_81_151" maskUnits="userSpaceOnUse" x="74.9722" y="4.41833" width="46" height="51" fill="black">
<rect fill="white" x="74.9722" y="4.41833" width="46" height="51"/>
<path d="M97.9588 49.9122C94.6663 49.9122 91.7213 49.272 89.124 47.9916C86.5266 46.7112 84.4962 44.9369 83.0329 42.6688C81.6061 40.364 80.8928 37.7484 80.8928 34.8217V25.493C80.8928 22.5664 81.5879 19.969 82.978 17.7009C84.4047 15.4327 86.3802 13.6767 88.9045 12.4329C91.4653 11.1525 94.3736 10.5123 97.6295 10.5123C100.885 10.5123 103.794 11.0062 106.355 11.9939C108.915 12.9451 110.891 14.2986 112.281 16.0546C113.708 17.8106 114.421 19.8044 114.421 22.036C114.421 23.4993 113.946 24.6516 112.994 25.493C112.043 26.2979 110.745 26.7003 109.098 26.7003C108.147 26.7003 107.214 26.5722 106.3 26.3162C106.409 25.5479 106.464 24.6151 106.464 23.5176C106.464 21.7616 105.641 20.3348 103.995 19.2374C102.349 18.1033 100.227 17.5362 97.6295 17.5362C95.0687 17.5362 92.9835 18.2862 91.3738 19.7861C89.7642 21.2494 88.9593 23.1517 88.9593 25.493V34.8217C88.9593 37.1996 89.7824 39.1385 91.4287 40.6384C93.1115 42.1383 95.2882 42.8883 97.9588 42.8883C100.556 42.8883 102.66 42.3395 104.269 41.242C105.916 40.1445 106.739 38.7178 106.739 36.9618C106.739 35.7546 106.684 34.8766 106.574 34.3278C107.562 34.1083 108.458 33.9986 109.263 33.9986C110.909 33.9986 112.226 34.4193 113.214 35.2607C114.202 36.1021 114.695 37.2545 114.695 38.7178C114.695 40.8762 113.982 42.8151 112.555 44.5345C111.165 46.2173 109.19 47.5343 106.629 48.4855C104.105 49.4366 101.215 49.9122 97.9588 49.9122Z"/>
</mask>
<path d="M97.9588 49.9122C94.6663 49.9122 91.7213 49.272 89.124 47.9916C86.5266 46.7112 84.4962 44.9369 83.0329 42.6688C81.6061 40.364 80.8928 37.7484 80.8928 34.8217V25.493C80.8928 22.5664 81.5879 19.969 82.978 17.7009C84.4047 15.4327 86.3802 13.6767 88.9045 12.4329C91.4653 11.1525 94.3736 10.5123 97.6295 10.5123C100.885 10.5123 103.794 11.0062 106.355 11.9939C108.915 12.9451 110.891 14.2986 112.281 16.0546C113.708 17.8106 114.421 19.8044 114.421 22.036C114.421 23.4993 113.946 24.6516 112.994 25.493C112.043 26.2979 110.745 26.7003 109.098 26.7003C108.147 26.7003 107.214 26.5722 106.3 26.3162C106.409 25.5479 106.464 24.6151 106.464 23.5176C106.464 21.7616 105.641 20.3348 103.995 19.2374C102.349 18.1033 100.227 17.5362 97.6295 17.5362C95.0687 17.5362 92.9835 18.2862 91.3738 19.7861C89.7642 21.2494 88.9593 23.1517 88.9593 25.493V34.8217C88.9593 37.1996 89.7824 39.1385 91.4287 40.6384C93.1115 42.1383 95.2882 42.8883 97.9588 42.8883C100.556 42.8883 102.66 42.3395 104.269 41.242C105.916 40.1445 106.739 38.7178 106.739 36.9618C106.739 35.7546 106.684 34.8766 106.574 34.3278C107.562 34.1083 108.458 33.9986 109.263 33.9986C110.909 33.9986 112.226 34.4193 113.214 35.2607C114.202 36.1021 114.695 37.2545 114.695 38.7178C114.695 40.8762 113.982 42.8151 112.555 44.5345C111.165 46.2173 109.19 47.5343 106.629 48.4855C104.105 49.4366 101.215 49.9122 97.9588 49.9122Z" fill="url(#paint1_linear_81_151)"/>
<path d="M89.124 47.9916L86.735 52.8377H86.735L89.124 47.9916ZM83.0329 42.6688L78.439 45.5126L78.4655 45.5555L78.4928 45.5978L83.0329 42.6688ZM82.978 17.7009L78.4047 14.8241L78.3879 14.8507L78.3715 14.8775L82.978 17.7009ZM88.9045 12.4329L91.2926 17.2794L91.3067 17.2724L91.3207 17.2654L88.9045 12.4329ZM106.355 11.9939L104.41 17.0348L104.442 17.047L104.473 17.0587L106.355 11.9939ZM112.281 16.0546L108.045 19.4082L108.066 19.4351L108.088 19.4617L112.281 16.0546ZM112.994 25.493L116.484 29.6176L116.53 29.5792L116.574 29.5398L112.994 25.493ZM106.3 26.3162L100.951 25.5521L100.281 30.2417L104.843 31.519L106.3 26.3162ZM103.995 19.2374L100.93 23.6867L100.964 23.71L100.998 23.7328L103.995 19.2374ZM91.3738 19.7861L95.0082 23.7839L95.0328 23.7616L95.0571 23.7389L91.3738 19.7861ZM91.4287 40.6384L87.7899 44.6322L87.8117 44.6521L87.8337 44.6718L91.4287 40.6384ZM104.269 41.242L101.272 36.7465L101.249 36.7621L101.226 36.778L104.269 41.242ZM106.574 34.3278L105.402 29.0536L100.239 30.201L101.276 35.3875L106.574 34.3278ZM113.214 35.2607L109.71 39.3736L113.214 35.2607ZM112.555 44.5345L108.397 41.0843L108.39 41.0935L112.555 44.5345ZM106.629 48.4855L104.748 43.4206L104.736 43.4251L104.724 43.4296L106.629 48.4855ZM97.9588 44.5093C95.3807 44.5093 93.2712 44.0123 91.5129 43.1455L86.735 52.8377C90.1714 54.5317 93.9519 55.3151 97.9588 55.3151V44.5093ZM91.5129 43.1455C89.7265 42.2649 88.4673 41.1259 87.5729 39.7397L78.4928 45.5978C80.5251 48.7479 83.3266 51.1575 86.735 52.8377L91.5129 43.1455ZM87.6268 39.8249C86.7711 38.4426 86.2957 36.8268 86.2957 34.8217H75.4899C75.4899 38.6699 76.4412 42.2855 78.439 45.5126L87.6268 39.8249ZM86.2957 34.8217V25.493H75.4899V34.8217H86.2957ZM86.2957 25.493C86.2957 23.4599 86.7665 21.8589 87.5845 20.5242L78.3715 14.8775C76.4092 18.0791 75.4899 21.6729 75.4899 25.493H86.2957ZM87.5514 20.5777C88.4186 19.1989 89.6178 18.1046 91.2926 17.2794L86.5163 7.58643C83.1426 9.24885 80.3909 11.6665 78.4047 14.8241L87.5514 20.5777ZM91.3207 17.2654C93.0342 16.4087 95.0966 15.9152 97.6295 15.9152V5.10939C93.6506 5.10939 89.8963 5.89633 86.4882 7.6004L91.3207 17.2654ZM97.6295 15.9152C100.342 15.9152 102.574 16.3264 104.41 17.0348L108.299 6.95299C105.014 5.68594 101.429 5.10939 97.6295 5.10939V15.9152ZM104.473 17.0587C106.311 17.7413 107.391 18.5817 108.045 19.4082L116.517 12.701C114.391 10.0156 111.52 8.1488 108.236 6.92909L104.473 17.0587ZM108.088 19.4617C108.744 20.2691 109.018 21.0639 109.018 22.036H119.824C119.824 18.5449 118.672 15.3521 116.474 12.6476L108.088 19.4617ZM109.018 22.036C109.018 22.1815 108.995 22.1174 109.07 21.9366C109.107 21.8484 109.158 21.7528 109.225 21.6595C109.291 21.5665 109.359 21.4955 109.415 21.4463L116.574 29.5398C118.867 27.512 119.824 24.7864 119.824 22.036H109.018ZM109.504 21.3685C109.562 21.3195 109.617 21.2839 109.661 21.2604C109.704 21.2374 109.723 21.2329 109.708 21.2376C109.672 21.2487 109.489 21.2974 109.098 21.2974V32.1032C111.607 32.1032 114.282 31.4814 116.484 29.6176L109.504 21.3685ZM109.098 21.2974C108.639 21.2974 108.196 21.2365 107.756 21.1134L104.843 31.519C106.232 31.908 107.655 32.1032 109.098 32.1032V21.2974ZM111.648 27.0803C111.806 25.9792 111.867 24.7751 111.867 23.5176H101.061C101.061 24.455 101.013 25.1166 100.951 25.5521L111.648 27.0803ZM111.867 23.5176C111.867 19.7024 109.918 16.6926 106.992 14.7419L100.998 23.7328C101.134 23.8234 101.196 23.8833 101.213 23.9004C101.228 23.9154 101.203 23.8931 101.167 23.8305C101.13 23.7659 101.099 23.6901 101.079 23.6151C101.06 23.542 101.061 23.5039 101.061 23.5176H111.867ZM107.06 14.788C104.277 12.871 100.996 12.1333 97.6295 12.1333V22.9392C99.4573 22.9392 100.42 23.3356 100.93 23.6867L107.06 14.788ZM97.6295 12.1333C93.9412 12.1333 90.4627 13.2501 87.6905 15.8333L95.0571 23.7389C95.5042 23.3223 96.1962 22.9392 97.6295 22.9392V12.1333ZM87.7394 15.7883C84.9104 18.3601 83.5564 21.7598 83.5564 25.493H94.3622C94.3622 24.5436 94.6179 24.1388 95.0082 23.7839L87.7394 15.7883ZM83.5564 25.493V34.8217H94.3622V25.493H83.5564ZM83.5564 34.8217C83.5564 38.604 84.9371 42.033 87.7899 44.6322L95.0675 36.6446C94.6278 36.244 94.3622 35.7952 94.3622 34.8217H83.5564ZM87.8337 44.6718C90.6837 47.2119 94.2211 48.2912 97.9588 48.2912V37.4854C96.3553 37.4854 95.5393 37.0647 95.0236 36.6051L87.8337 44.6718ZM97.9588 48.2912C101.287 48.2912 104.552 47.5888 107.313 45.7061L101.226 36.778C100.768 37.0902 99.8258 37.4854 97.9588 37.4854V48.2912ZM107.266 45.7375C110.192 43.7868 112.142 40.777 112.142 36.9618H101.336C101.336 36.9754 101.335 36.9373 101.354 36.8643C101.373 36.7893 101.404 36.7135 101.441 36.6489C101.478 36.5862 101.502 36.564 101.487 36.579C101.471 36.5961 101.408 36.656 101.272 36.7465L107.266 45.7375ZM112.142 36.9618C112.142 35.7095 112.094 34.3762 111.872 33.2682L101.276 35.3875C101.264 35.3288 101.285 35.4183 101.305 35.7349C101.324 36.0292 101.336 36.4325 101.336 36.9618H112.142ZM107.746 39.6021C108.443 39.4473 108.938 39.4015 109.263 39.4015V28.5957C107.978 28.5957 106.681 28.7694 105.402 29.0536L107.746 39.6021ZM109.263 39.4015C109.631 39.4015 109.804 39.449 109.841 39.4608C109.858 39.4663 109.847 39.4641 109.816 39.4474C109.785 39.4303 109.748 39.4054 109.71 39.3736L116.717 31.1478C114.513 29.2696 111.839 28.5957 109.263 28.5957V39.4015ZM109.71 39.3736C109.661 39.3314 109.594 39.265 109.525 39.1727C109.456 39.0798 109.4 38.9807 109.359 38.8844C109.274 38.6851 109.293 38.5969 109.293 38.7178H120.098C120.098 35.898 119.073 33.1541 116.717 31.1478L109.71 39.3736ZM109.293 38.7178C109.293 39.5688 109.05 40.2976 108.397 41.0844L116.713 47.9847C118.914 45.3326 120.098 42.1836 120.098 38.7178H109.293ZM108.39 41.0935C107.74 41.8807 106.639 42.7182 104.748 43.4206L108.51 53.5503C111.741 52.3504 114.591 50.5539 116.721 47.9755L108.39 41.0935ZM104.724 43.4296C102.92 44.1092 100.695 44.5093 97.9588 44.5093V55.3151C101.734 55.3151 105.289 54.764 108.534 53.5414L104.724 43.4296Z" fill="#411D09" mask="url(#path-4-outside-2_81_151)"/>
</g>
<rect x="2.45631" y="61.8746" width="31.2597" height="10.4199" rx="5.20995" fill="url(#paint2_linear_81_151)" stroke="#411D09" stroke-width="3.08738"/>
<rect x="54.1699" y="61.8746" width="59.432" height="10.4199" rx="5.20995" fill="url(#paint3_linear_81_151)" stroke="#411D09" stroke-width="3.08738"/>
<rect x="134.828" y="61.8746" width="40.5218" height="10.4199" rx="5.20995" fill="url(#paint4_linear_81_151)" stroke="#411D09" stroke-width="3.08738"/>
<rect x="179.595" y="61.8746" width="27.4005" height="10.4199" rx="5.20995" fill="url(#paint5_linear_81_151)" stroke="#411D09" stroke-width="3.08738"/>
<circle cx="43.557" cy="67.0846" r="5.9818" fill="url(#paint6_linear_81_151)" stroke="#411D09" stroke-width="3.08738"/>
<circle cx="124.215" cy="67.0846" r="5.9818" fill="url(#paint7_linear_81_151)" stroke="#411D09" stroke-width="3.08738"/>
<path d="M80.9915 35.246V34.0883H89.0564V35.246C87.9381 37.5616 82.3422 37.3686 80.9915 35.246Z" fill="#F19810"/>
<defs>
<linearGradient id="paint0_linear_81_151" x1="105" y1="-7.97729" x2="104.933" y2="59.3573" gradientUnits="userSpaceOnUse">
<stop stop-color="#FFE91F"/>
<stop offset="1" stop-color="#E87205"/>
</linearGradient>
<linearGradient id="paint1_linear_81_151" x1="97.9722" y1="-7.58167" x2="97.9722" y2="51.9048" gradientUnits="userSpaceOnUse">
<stop offset="0.726704" stop-color="#1FD7FF"/>
<stop offset="1" stop-color="#1F6BFF"/>
</linearGradient>
<linearGradient id="paint2_linear_81_151" x1="18.0862" y1="63.4183" x2="18.0862" y2="70.7509" gradientUnits="userSpaceOnUse">
<stop stop-color="#F8B117"/>
<stop offset="1" stop-color="#F35D08"/>
</linearGradient>
<linearGradient id="paint3_linear_81_151" x1="83.886" y1="63.4183" x2="83.886" y2="70.7509" gradientUnits="userSpaceOnUse">
<stop stop-color="#1FD7FF"/>
<stop offset="1" stop-color="#1F6BFF"/>
</linearGradient>
<linearGradient id="paint4_linear_81_151" x1="155.089" y1="63.4183" x2="155.089" y2="70.7509" gradientUnits="userSpaceOnUse">
<stop stop-color="#1FD7FF"/>
<stop offset="1" stop-color="#1F6BFF"/>
</linearGradient>
<linearGradient id="paint5_linear_81_151" x1="193.295" y1="63.4183" x2="193.295" y2="70.7509" gradientUnits="userSpaceOnUse">
<stop stop-color="#F8B117"/>
<stop offset="1" stop-color="#F35D08"/>
</linearGradient>
<linearGradient id="paint6_linear_81_151" x1="43.557" y1="62.6465" x2="43.557" y2="71.5227" gradientUnits="userSpaceOnUse">
<stop stop-color="#1FA1FF"/>
<stop offset="1" stop-color="#1F5EFF"/>
</linearGradient>
<linearGradient id="paint7_linear_81_151" x1="124.215" y1="62.6465" x2="124.215" y2="71.5227" gradientUnits="userSpaceOnUse">
<stop stop-color="#F8B117"/>
<stop offset="1" stop-color="#F35D08"/>
</linearGradient>
<clipPath id="clip0_81_151">
<rect width="59.818" height="29.3301" fill="white" transform="translate(68.0632 34.0883)"/>
</clipPath>
</defs>
</svg>
